<svg width="304" height="305" viewBox="0 0 304 305" fill="none" xmlns="http://www.w3.org/2000/svg">
<g clip-path="url(#clip0_1_162)">
<path d="M304 0.660034H0V304.66H304V0.660034Z" fill="#CBD0D0"/>
<path d="M99.8873 87.1997H66.9494C62.9194 87.1997 59.6524 90.4667 59.6524 94.4967V127.434C59.6524 131.464 62.9194 134.731 66.9494 134.731H99.8873C103.917 134.731 107.184 131.464 107.184 127.434V94.4967C107.184 90.4667 103.917 87.1997 99.8873 87.1997Z" fill="#888F82"/>
<path d="M232.268 179.906H201.295C197.265 179.906 193.998 183.173 193.998 187.203V218.177C193.998 222.207 197.265 225.474 201.295 225.474H232.268C236.298 225.474 239.565 222.207 239.565 218.177V187.203C239.565 183.173 236.298 179.906 232.268 179.906Z" fill="#888F82"/>
<path d="M108.363 227.045C121.38 227.045 131.932 216.492 131.932 203.476C131.932 190.458 121.38 179.906 108.363 179.906C95.3455 179.906 84.7932 190.458 84.7932 203.476C84.7932 216.492 95.3455 227.045 108.363 227.045Z" fill="#C26148"/>
<path d="M273.545 164.585C281.463 164.585 287.883 158.167 287.883 150.248C287.883 142.329 281.463 135.91 273.545 135.91C265.626 135.91 259.207 142.329 259.207 150.248C259.207 158.167 265.626 164.585 273.545 164.585Z" fill="#C26148"/>
<path d="M206.617 134.745C218.705 134.745 228.504 124.946 228.504 112.858C228.504 100.77 218.705 90.9708 206.617 90.9708C194.529 90.9708 184.73 100.77 184.73 112.858C184.73 124.946 194.529 134.745 206.617 134.745Z" fill="#C26148"/>
<path fill-rule="evenodd" clip-rule="evenodd" d="M57.7975 206.469C57.8907 206.378 57.9829 206.287 58.0751 206.196C67.5427 196.727 67.5427 181.377 58.0751 171.909C48.6068 162.441 33.256 162.441 23.7878 171.909C23.6962 172.001 23.6053 172.093 23.5153 172.186L57.7975 206.469Z" fill="#E1E4E5"/>
<path fill-rule="evenodd" clip-rule="evenodd" d="M165.595 131.974C165.6 131.763 165.603 131.55 165.603 131.337C165.603 118.676 155.34 108.412 142.679 108.412C130.018 108.412 119.754 118.676 119.754 131.337C119.754 131.55 119.757 131.763 119.763 131.974H165.595ZM173.773 225.446C173.928 225.3 174.08 225.152 174.231 225.001C183.183 216.049 183.183 201.533 174.231 192.581C165.278 183.628 150.763 183.628 141.81 192.581C141.659 192.731 141.511 192.884 141.366 193.038L173.773 225.446Z" fill="#B6B9B3"/>
<path d="M30.159 119.777C31.5633 117.345 35.0743 117.345 36.4786 119.777L50.2178 143.575C51.6222 146.007 49.8668 149.047 47.0582 149.047H19.5794C16.7708 149.047 15.0152 146.007 16.4199 143.575L30.159 119.777Z" fill="#C26148"/>
<path d="M179.909 78.6866C182.718 78.6866 184.473 81.7272 183.069 84.1597L172.231 102.931C170.827 105.364 167.316 105.364 165.912 102.931L155.074 84.1597C153.669 81.7272 155.425 78.6866 158.233 78.6866H179.909ZM278.267 179.145C281.075 179.145 282.83 182.185 281.426 184.618L267.687 208.416C266.283 210.848 262.772 210.848 261.368 208.416L247.628 184.618C246.224 182.185 247.979 179.145 250.788 179.145H278.267Z" fill="#E1E4E5"/>
<path d="M241.072 127.508C238.263 127.508 236.507 124.468 237.912 122.035L252.281 97.1471C253.685 94.7146 257.196 94.7146 258.6 97.1471L272.97 122.035C274.374 124.468 272.619 127.508 269.81 127.508H241.072Z" fill="#B6B9B3"/>
<path d="M234.852 146.516H82.4362C74.6259 146.516 68.2946 152.848 68.2946 160.658C68.2946 168.468 74.6259 174.799 82.4362 174.799H234.852C242.662 174.799 248.993 168.468 248.993 160.658C248.993 152.848 242.662 146.516 234.852 146.516Z" fill="white" stroke="#E1E4E5" stroke-width="2.02667"/>
<path d="M89.2321 162.276L93.8281 166.935M89.2661 155.615C91.0982 157.448 91.0982 160.418 89.2661 162.25C87.434 164.082 84.4639 164.082 82.6323 162.25C80.7997 160.418 80.7997 157.448 82.6323 155.615C84.4639 153.783 87.434 153.783 89.2661 155.615Z" stroke="#E1E4E5" stroke-width="2.02667" stroke-linecap="round" stroke-linejoin="round"/>
<path fill-rule="evenodd" clip-rule="evenodd" d="M21.078 213.204H22.6998C23.092 213.204 23.4076 213.523 23.4076 213.912V215.534C23.4076 215.926 23.0887 216.242 22.6998 216.242H21.078C20.8905 216.241 20.7109 216.166 20.5783 216.033C20.4457 215.901 20.3709 215.721 20.3702 215.534V213.912C20.37 213.819 20.3882 213.727 20.4237 213.641C20.4592 213.555 20.5113 213.477 20.5771 213.411C20.6429 213.345 20.721 213.293 20.8069 213.258C20.8929 213.222 20.985 213.204 21.078 213.204ZM26.7004 213.204H28.3218C28.7107 213.204 29.0296 213.523 29.0296 213.912V215.534C29.0296 215.926 28.7107 216.242 28.3218 216.242H26.7004C26.5129 216.241 26.3332 216.166 26.2006 216.033C26.068 215.901 25.9933 215.721 25.9926 215.534V213.912C25.9926 213.523 26.3115 213.204 26.7004 213.204ZM32.3264 213.204H33.9478C34.3367 213.204 34.6556 213.523 34.6556 213.912V215.534C34.6556 215.926 34.3367 216.242 33.9478 216.242H32.3264C32.1389 216.241 31.9592 216.166 31.8266 216.033C31.694 215.901 31.6192 215.721 31.6186 215.534V213.912C31.6183 213.819 31.6365 213.727 31.6719 213.641C31.7074 213.555 31.7596 213.477 31.8254 213.411C31.8911 213.345 31.9692 213.293 32.0552 213.258C32.1412 213.222 32.2334 213.204 32.3264 213.204ZM37.9484 213.204H39.5701C39.9587 213.204 40.2779 213.523 40.2779 213.912V215.534C40.2779 215.926 39.9587 216.242 39.5701 216.242H37.9484C37.7603 216.241 37.5801 216.167 37.4468 216.034C37.3136 215.902 37.2382 215.722 37.2373 215.534V213.912C37.2393 213.724 37.3149 213.545 37.4479 213.413C37.581 213.28 37.7607 213.206 37.9484 213.204ZM43.571 213.204H45.1928C45.3808 213.205 45.5611 213.279 45.6944 213.411C45.8276 213.544 45.903 213.724 45.9039 213.912V215.534C45.9039 215.926 45.5847 216.242 45.1928 216.242H43.571C43.3836 216.241 43.2039 216.166 43.0713 216.033C42.9387 215.901 42.8639 215.721 42.8633 215.534V213.912C42.8633 213.523 43.1825 213.204 43.571 213.204ZM26.9065 219.335H28.5283C28.9168 219.335 29.2361 219.654 29.2361 220.043V221.668C29.2361 222.057 28.9168 222.376 28.5283 222.376H26.9065C26.7188 222.375 26.5388 222.301 26.4061 222.168C26.2734 222.035 26.1988 221.855 26.1987 221.668V220.046C26.1981 219.953 26.216 219.861 26.2514 219.775C26.2867 219.688 26.3387 219.609 26.4045 219.544C26.4703 219.477 26.5486 219.425 26.6347 219.389C26.7209 219.354 26.8133 219.335 26.9065 219.335ZM32.5289 219.335H34.1502C34.5392 219.335 34.8581 219.654 34.8581 220.043V221.668C34.8581 222.057 34.5392 222.376 34.1502 222.376H32.5289C32.3413 222.375 32.1617 222.3 32.0291 222.168C31.8965 222.035 31.8218 221.855 31.821 221.668V220.046C31.8205 219.953 31.8384 219.861 31.8737 219.775C31.909 219.688 31.9611 219.609 32.0269 219.544C32.0927 219.477 32.1709 219.425 32.2571 219.389C32.3432 219.354 32.4356 219.335 32.5289 219.335ZM38.1512 219.335H39.773C40.1652 219.335 40.4841 219.654 40.4841 220.043V221.668C40.4841 222.057 40.1652 222.376 39.773 222.376H38.1512C37.9637 222.375 37.7842 222.3 37.6516 222.168C37.519 222.035 37.4442 221.855 37.4434 221.668V220.046C37.4435 219.858 37.518 219.678 37.6507 219.545C37.7832 219.412 37.9632 219.336 38.1512 219.335ZM32.3264 206.618H33.9478C34.3367 206.618 34.6556 206.937 34.6556 207.326V208.948C34.6556 209.339 34.3367 209.655 33.9478 209.655H32.3264C32.1389 209.654 31.9593 209.58 31.8267 209.447C31.6942 209.315 31.6193 209.135 31.6186 208.948V207.326C31.6183 207.233 31.6365 207.141 31.6719 207.055C31.7074 206.969 31.7596 206.891 31.8254 206.825C31.8911 206.759 31.9692 206.707 32.0552 206.672C32.1412 206.636 32.2334 206.618 32.3264 206.618ZM37.9484 206.618H39.5701C39.9587 206.618 40.2779 206.937 40.2779 207.326V208.948C40.2779 209.339 39.9587 209.655 39.5701 209.655H37.9484C37.7603 209.655 37.5801 209.581 37.4468 209.448C37.3136 209.315 37.2382 209.136 37.2373 208.948V207.326C37.2393 207.138 37.3149 206.959 37.4479 206.826C37.581 206.694 37.7607 206.619 37.9484 206.618ZM123.388 93.3309H124.51C124.781 93.3309 125 93.5518 125 93.8208V94.9436C125 95.2146 124.779 95.4335 124.51 95.4335H123.388C123.257 95.433 123.133 95.3813 123.041 95.2896C122.95 95.1974 122.898 95.0733 122.897 94.9436V93.8208C122.897 93.7564 122.91 93.6926 122.935 93.6333C122.959 93.5735 122.995 93.5193 123.04 93.4742C123.086 93.4286 123.14 93.3922 123.2 93.3678C123.259 93.343 123.323 93.3309 123.388 93.3309ZM127.28 93.3309H128.402C128.532 93.3314 128.656 93.3835 128.748 93.4753C128.84 93.567 128.891 93.6911 128.892 93.8208V94.9436C128.892 95.2146 128.671 95.4335 128.402 95.4335H127.28C127.15 95.433 127.025 95.3813 126.934 95.2896C126.842 95.1974 126.79 95.0733 126.79 94.9436V93.8208C126.79 93.5518 127.01 93.3309 127.28 93.3309ZM131.174 93.3309H132.297C132.566 93.3309 132.787 93.5518 132.787 93.8208V94.9436C132.787 95.2146 132.566 95.4335 132.297 95.4335H131.174C131.044 95.433 130.92 95.3813 130.828 95.2896C130.737 95.1974 130.685 95.0733 130.685 94.9436V93.8208C130.684 93.7564 130.697 93.6926 130.722 93.6333C130.746 93.5735 130.782 93.5193 130.827 93.4742C130.873 93.4286 130.927 93.3922 130.987 93.3678C131.046 93.343 131.11 93.3309 131.174 93.3309ZM135.067 93.3309H136.189C136.459 93.3309 136.679 93.5518 136.679 93.8208V94.9436C136.679 95.2146 136.459 95.4335 136.189 95.4335H135.067C134.936 95.4335 134.812 95.3818 134.72 95.2901C134.627 95.1979 134.575 95.0738 134.574 94.9436V93.8208C134.576 93.6911 134.628 93.567 134.72 93.4753C134.812 93.3835 134.936 93.3319 135.067 93.3309ZM138.959 93.3309H140.082C140.353 93.3309 140.574 93.5518 140.574 93.8208V94.9436C140.574 95.2146 140.353 95.4335 140.082 95.4335H138.959C138.829 95.433 138.705 95.3813 138.613 95.2896C138.521 95.1974 138.469 95.0733 138.469 94.9436V93.8208C138.469 93.5518 138.69 93.3309 138.959 93.3309ZM127.422 97.5757H128.545C128.814 97.5757 129.035 97.7961 129.035 98.0657V99.1905C129.035 99.4595 128.814 99.6804 128.545 99.6804H127.422C127.292 99.6804 127.168 99.6287 127.076 99.5365C126.984 99.4448 126.932 99.3202 126.932 99.1905V98.0677C126.932 98.0033 126.944 97.939 126.969 97.8792C126.993 97.8194 127.029 97.7652 127.075 97.7196C127.12 97.674 127.174 97.6375 127.234 97.6127C127.294 97.5879 127.358 97.5752 127.422 97.5757ZM131.314 97.5757H132.437C132.706 97.5757 132.927 97.7961 132.927 98.0657V99.1905C132.927 99.4595 132.706 99.6804 132.437 99.6804H131.314C131.185 99.6799 131.06 99.6282 130.968 99.5365C130.877 99.4443 130.825 99.3202 130.824 99.1905V98.0677C130.824 98.0033 130.837 97.939 130.861 97.8792C130.885 97.8194 130.921 97.7652 130.967 97.7196C131.012 97.674 131.067 97.6375 131.126 97.6127C131.186 97.5879 131.25 97.5752 131.314 97.5757ZM135.207 97.5757H136.33C136.601 97.5757 136.822 97.7961 136.822 98.0657V99.1905C136.821 99.3207 136.769 99.4453 136.677 99.537C136.585 99.6287 136.46 99.6804 136.33 99.6804H135.207C135.077 99.6799 134.953 99.6282 134.861 99.5365C134.769 99.4443 134.718 99.3202 134.717 99.1905V98.0677C134.717 97.9375 134.769 97.8128 134.86 97.7206C134.952 97.6284 135.077 97.5762 135.207 97.5757ZM131.174 88.7714H132.297C132.566 88.7714 132.787 88.9918 132.787 89.2613V90.3841C132.787 90.6551 132.566 90.874 132.297 90.874H131.174C131.044 90.8735 130.92 90.8218 130.828 90.7296C130.737 90.6379 130.685 90.5138 130.685 90.3841V89.2613C130.684 89.197 130.697 89.1331 130.722 89.0733C130.746 89.0141 130.782 88.9598 130.827 88.9142C130.873 88.8691 130.927 88.8327 130.987 88.8083C131.046 88.7835 131.11 88.7714 131.174 88.7714ZM135.067 88.7714H136.189C136.459 88.7714 136.679 88.9918 136.679 89.2613V90.3841C136.679 90.6551 136.459 90.874 136.189 90.874H135.067C134.936 90.874 134.812 90.8223 134.72 90.7306C134.627 90.6384 134.575 90.5138 134.574 90.3841V89.2613C134.576 89.1311 134.628 89.007 134.72 88.9153C134.812 88.8241 134.936 88.7719 135.067 88.7714Z" fill="#E1E4E5"/>
</g>
<defs>
<clipPath id="clip0_1_162">
<rect width="304" height="304" fill="white" transform="translate(0 0.660034)"/>
</clipPath>
</defs>
</svg>
