<svg width="740" height="419" viewBox="0 0 740 419" fill="none" xmlns="http://www.w3.org/2000/svg">
<g clip-path="url(#clip0_1_37)">
<path fill-rule="evenodd" clip-rule="evenodd" d="M529.924 0.380005C576.709 0.380005 614.983 38.3613 614.983 84.7902C614.983 131.219 576.709 169.201 529.924 169.201C520.538 169.201 512.852 176.83 512.852 186.143C512.852 195.457 520.538 203.085 529.924 203.085H574.432C597.255 203.085 615.932 221.62 615.932 244.269C615.932 266.918 597.255 285.452 574.432 285.452C554.692 285.452 538.54 301.481 538.54 321.07C538.54 356.81 509.075 386.051 473.059 386.051H88.6647C41.8786 386.051 3.60528 348.07 3.60528 301.642C3.60528 255.212 41.8786 217.231 88.6647 217.231H96.892C106.279 217.231 113.965 209.612 113.965 200.288C113.965 190.974 106.287 183.346 96.892 183.346H41.5088C18.6842 183.346 0.0088501 164.811 0.0088501 142.162C0.0088501 119.541 18.6378 101.026 41.4223 100.98H85.9885C105.728 100.98 121.88 84.9505 121.88 65.3614C121.88 29.6215 151.346 0.380005 187.361 0.380005H529.924Z" fill="url(#paint0_linear_1_37)"/>
<path d="M364.396 185.237L348.996 180.553L282.047 178.582L266.948 182.703L268.918 219.494L303.077 241.288L336.208 240.624L357.036 221.645L361.661 202.828L364.396 185.237Z" fill="#F8AE9D"/>
<path d="M171.109 244.404C175.954 234.411 180.599 226.39 184.741 220.058C192.871 207.579 205.308 198.526 219.682 194.625L274.285 179.828C274.285 179.828 277.12 234.392 314.675 234.392C352.23 234.392 359.549 183.226 359.549 183.226L422.737 208.437C424.908 209.281 439.564 214.348 456.612 250.917C472.857 285.738 479.955 303.571 479.955 303.571L414.856 322.369L410.795 380.912L412.182 414.347L214.594 413.904L215.701 375.685L214.877 317.08L212.404 321.082L146.643 294.705C146.643 294.705 155.106 277.334 171.109 244.404Z" fill="#B6B9B3"/>
<path d="M321.058 204.703C305.031 204.407 286.827 173.148 286.827 173.148L285.781 92.8537C284.944 69.727 299.33 50.0225 325.259 49.9146L327.666 50.0225C351.799 51.1744 370.911 68.6539 371.557 90.1937C372.167 110.241 372.533 132.386 371.748 143.086C370.108 165.232 344.842 161.495 344.842 161.495C344.79 161.495 344.911 172.651 344.842 179.167C344.65 193.8 327.492 205.201 321.058 204.703Z" fill="#F8AE9D"/>
<path d="M293.788 97.2585C293.347 97.0476 276.086 91.2841 275.701 108.333C275.315 125.383 293.385 122.239 293.421 121.749C293.457 121.26 293.788 97.2585 293.788 97.2585ZM474.347 305.2L500.824 358.336C503.782 364.273 505.167 370.87 504.846 377.495C503.841 398.122 486.813 414.347 466.165 414.347L389.612 413.144L386.913 375.304L444.693 361.372L422.799 319.976L474.347 305.2ZM150.001 296.052C150.001 296.052 133.577 344.846 115.663 389.197C115.301 390.081 114.899 391.731 114.578 392.634C110.536 403.631 122.699 414.347 134.984 414.347L238.502 414.167V380.512L174.107 366.84L197.429 315.051L150.001 296.052Z" fill="#F8AE9D"/>
<path d="M357.478 378.962C357.458 379.083 355.105 378.339 351.185 378.097C347.285 377.837 341.756 378.279 336.248 380.631C330.738 382.983 326.577 386.663 324.085 389.658C321.552 392.654 320.466 394.885 320.366 394.804C320.325 394.784 320.565 394.222 321.108 393.256C321.651 392.291 322.516 390.925 323.743 389.377C326.196 386.26 330.378 382.441 336.006 380.048C341.636 377.656 347.285 377.254 351.225 377.656C353.196 377.837 354.784 378.158 355.85 378.44C356.915 378.701 357.498 378.923 357.478 378.962ZM353.939 370.821C353.899 370.981 351.507 369.795 347.385 369.674C343.284 369.493 337.514 370.739 332.126 373.997C326.739 377.273 322.697 381.415 319.843 384.39C318.475 385.838 317.349 387.044 316.464 387.969C315.66 388.814 315.218 389.275 315.178 389.235C315.138 389.215 315.54 388.692 316.284 387.809C317.331 386.547 318.403 385.308 319.501 384.089C322.294 381.033 326.316 376.791 331.804 373.453C337.293 370.136 343.224 368.93 347.406 369.233C349.497 369.353 351.165 369.734 352.271 370.116C352.833 370.277 353.236 370.478 353.518 370.599C353.799 370.719 353.939 370.799 353.939 370.821Z" fill="#EB996E"/>
<path d="M216.726 374.338H231.584C231.584 374.338 265.118 362.216 272.013 363.381C278.226 364.427 300.964 379.526 305.427 382.521C305.93 382.863 306.292 383.325 306.512 383.888C306.95 385.071 306.912 386.377 306.405 387.532C305.899 388.688 304.965 389.601 303.798 390.081L303.336 390.281L303.538 390.965C303.798 391.809 303.921 392.755 303.879 393.68C303.719 396.876 299.416 397.84 297.788 395.087L298.653 396.615C298.994 397.237 299.175 397.942 299.135 398.645L299.054 400.032C299.011 400.783 298.743 401.503 298.283 402.099C297.824 402.694 297.196 403.137 296.481 403.37C295.801 403.595 295.07 403.619 294.378 403.437C293.686 403.255 293.061 402.875 292.58 402.344C289.706 399.168 283.474 392.815 279.251 392.112C275.513 391.487 269.26 391.407 265.48 391.427C264.543 391.428 263.629 391.714 262.858 392.245C262.087 392.776 261.494 393.529 261.158 394.403C263.65 394.583 281.081 403.67 287.253 406.928C289.163 407.934 290.59 409.743 290.832 411.893C291.052 413.824 290.087 415.855 286.268 414.95C278.066 413.039 263.329 406.264 263.329 406.264C263.329 406.264 255.729 404.093 250.804 407.572C243.868 412.457 240.691 414.246 234.741 412.276C228.789 410.305 224.407 407.471 224.407 407.471L212.686 406.304C212.646 406.304 201.568 378.601 216.726 374.338Z" fill="#F8AE9D"/>
<path d="M261.016 380.009C261.038 380.129 263.39 379.386 267.31 379.144C271.211 378.883 276.739 379.326 282.248 381.677C287.757 384.03 291.918 387.709 294.411 390.704C296.944 393.7 298.03 395.931 298.13 395.851C298.171 395.831 297.929 395.268 297.386 394.303C296.61 392.943 295.73 391.646 294.752 390.423C292.3 387.307 288.118 383.487 282.489 381.094C276.859 378.702 271.211 378.3 267.269 378.702C265.71 378.837 264.163 379.099 262.646 379.486C261.581 379.768 260.997 379.969 261.016 380.009ZM264.555 371.867C264.596 372.028 266.987 370.841 271.109 370.72C275.211 370.54 280.981 371.785 286.368 375.043C291.756 378.32 295.797 382.462 298.652 385.436C300.02 386.885 301.146 388.09 302.031 389.015C302.834 389.86 303.277 390.322 303.316 390.281C303.356 390.262 302.956 389.738 302.211 388.855C301.164 387.593 300.092 386.353 298.994 385.136C296.2 382.08 292.179 377.838 286.691 374.5C281.201 371.182 275.271 369.976 271.089 370.279C268.998 370.399 267.329 370.78 266.224 371.162C265.662 371.324 265.258 371.525 264.978 371.645C264.696 371.765 264.555 371.847 264.555 371.867Z" fill="#EB996E"/>
<path d="M236.832 415.293H392.822C394.956 415.295 397.008 414.471 398.548 412.995C400.088 411.519 400.996 409.503 401.084 407.371L405.769 300.013C405.971 295.308 402.211 291.368 397.507 291.368H232.448C227.744 291.368 223.984 295.288 224.166 299.992L228.549 407.371C228.729 411.794 232.388 415.293 236.832 415.293Z" fill="#444642"/>
<path d="M299.215 355.316C299.213 357.411 299.625 359.487 300.426 361.423C301.227 363.359 302.402 365.118 303.884 366.6C305.364 368.082 307.124 369.257 309.06 370.058C310.997 370.86 313.071 371.27 315.166 371.269C317.262 371.271 319.337 370.86 321.274 370.059C323.21 369.257 324.969 368.083 326.451 366.601C327.933 365.119 329.108 363.36 329.909 361.423C330.71 359.487 331.121 357.412 331.119 355.316C331.121 353.221 330.71 351.146 329.909 349.21C329.108 347.274 327.932 345.514 326.45 344.033C324.968 342.552 323.209 341.377 321.273 340.576C319.337 339.775 317.262 339.363 315.166 339.365C306.347 339.365 299.215 346.534 299.215 355.316Z" fill="white"/>
<path d="M299.82 128.321H285.747V188.634H299.82V128.321Z" fill="#F8AE9D"/>
<path d="M294.295 74.4298C296.831 77.7016 301.304 78.4224 304.988 79.0704C309.939 79.9392 312.391 81.7506 314.961 86.6131C316.589 89.718 318.217 93.1201 321.131 94.8027C323.499 96.1762 323.413 92.6739 323.788 89.9625C323.823 89.7223 323.871 89.4841 323.933 89.2493C324.506 87.0844 326.811 87.453 327.487 89.589C328.104 91.512 329.424 93.1386 331.104 94.0442C331.377 94.1922 331.669 94.3207 331.959 94.2662C332.353 94.2107 332.661 93.8407 332.919 93.5086C333.458 92.8118 333.992 91.9256 334.546 90.9892C336.362 87.9093 339.8 89.0099 341.83 91.9557C343.097 93.7861 344.606 95.6712 346.679 96.0958C347.347 96.2438 348.187 96.1337 348.495 95.4871C348.89 94.6907 348.273 93.8962 348.376 93.0822C348.461 92.3255 348.787 91.992 349.147 91.3452C350.559 88.8343 353.79 88.744 355.777 90.83C357.159 92.28 358.601 93.6733 360.096 95.0052C360.73 95.5611 361.655 96.1152 362.289 95.5611C362.633 95.2651 362.718 94.7647 362.787 94.2847C363.147 91.9369 363.489 89.589 363.849 87.241C364.054 85.9286 364.757 84.2088 365.957 84.5421C366.539 84.7089 366.882 85.3181 367.207 85.8735C367.602 86.5754 374.644 94.5807 374.781 93.9702C375.877 89.4222 378.123 85.2818 379.219 80.7339C386.314 51.4685 354.836 27.9345 330.794 27.8054C325.448 27.769 320.565 27.8555 315.373 29.094C309.837 30.4253 303.995 32.5388 298.974 35.5147C291.931 39.674 286.601 47.2354 287.973 56.2572" fill="#444642"/>
<path d="M306.936 64.5363C310.473 68.421 311.41 73.8852 311.739 79.0473C312.225 86.8318 311.566 94.9201 307.854 101.831C306.798 103.799 306.017 113.533 304.388 112.996C303.867 112.828 303.954 105.278 302.584 101.209C300.468 94.9035 290.723 92.4991 286.335 96.4843C279.33 102.823 283.44 110.524 285.763 115.316C287.152 118.208 289.352 121.453 289.735 124.514C290.202 128.432 290.342 142.707 287.706 146.037C285.502 148.827 283.162 135.343 281.168 132.685C266.411 112.895 252.261 62.5017 277.458 51.5721C281.289 49.9073 293.116 49.0499 296.706 51.1684" fill="#444642"/>
<path fill-rule="evenodd" clip-rule="evenodd" d="M470.643 77.4344H475.336C476.47 77.4344 477.383 76.5119 477.383 75.3862V70.6941C477.383 69.5597 476.461 68.6459 475.336 68.6459H470.643C470.101 68.6478 469.581 68.8642 469.197 69.248C468.814 69.6317 468.597 70.1515 468.595 70.6941V75.3862C468.594 75.6553 468.647 75.922 468.75 76.1708C468.852 76.4197 469.003 76.6457 469.194 76.836C469.384 77.0263 469.61 77.1772 469.859 77.2799C470.108 77.3826 470.374 77.4352 470.643 77.4344ZM486.914 77.4344H491.605C492.148 77.4325 492.668 77.2161 493.052 76.8324C493.435 76.4487 493.651 75.9289 493.654 75.3862V70.6941C493.654 69.5597 492.731 68.6459 491.605 68.6459H486.914C486.371 68.6478 485.851 68.8642 485.467 69.248C485.083 69.6317 484.867 70.1515 484.865 70.6941V75.3862C484.867 75.9289 485.083 76.4487 485.467 76.8324C485.851 77.2161 486.371 77.4325 486.914 77.4344ZM503.193 77.4344H507.885C508.428 77.4325 508.947 77.2161 509.331 76.8324C509.715 76.4487 509.932 75.9289 509.933 75.3862V70.6941C509.933 69.5597 509.01 68.6459 507.885 68.6459H503.193C502.65 68.6478 502.13 68.8642 501.746 69.248C501.364 69.6317 501.147 70.1515 501.144 70.6941V75.3862C501.144 75.6553 501.196 75.922 501.3 76.1708C501.402 76.4197 501.553 76.6457 501.743 76.836C501.933 77.0263 502.16 77.1772 502.409 77.2799C502.658 77.3826 502.924 77.4352 503.193 77.4344ZM519.463 77.4344H524.155C524.697 77.4325 525.217 77.2161 525.601 76.8324C525.985 76.4487 526.201 75.9289 526.203 75.3862V70.6941C526.203 69.5597 525.281 68.6459 524.155 68.6459H519.463C518.329 68.6459 517.404 69.5684 517.404 70.6941V75.3862C517.41 75.9293 517.629 76.4484 518.014 76.8315C518.4 77.2147 518.92 77.4312 519.463 77.4344ZM535.734 77.4344H540.426C541.56 77.4344 542.484 76.5119 542.484 75.3862V70.6941C542.484 69.5597 541.56 68.6459 540.426 68.6459H535.734C535.191 68.6478 534.671 68.8642 534.288 69.248C533.904 69.6317 533.688 70.1515 533.686 70.6941V75.3862C533.688 75.9289 533.904 76.4487 534.288 76.8324C534.671 77.2161 535.191 77.4325 535.734 77.4344ZM487.51 59.6943H492.202C493.326 59.6943 494.25 58.7704 494.25 57.6459V52.9427C494.248 52.4003 494.031 51.8807 493.647 51.4973C493.264 51.1138 492.745 50.8976 492.202 50.8956H487.51C486.374 50.8956 485.461 51.8182 485.461 52.9427V57.6359C485.459 57.9059 485.511 58.1734 485.614 58.4233C485.717 58.6731 485.866 58.9002 486.057 59.0916C486.247 59.2829 486.474 59.4347 486.723 59.5381C486.973 59.6415 487.24 59.6946 487.51 59.6943ZM503.78 59.6943H508.472C509.014 59.6923 509.534 59.4758 509.918 59.0921C510.302 58.7085 510.518 58.1886 510.52 57.6459V52.9427C510.518 52.4003 510.301 51.8807 509.918 51.4973C509.534 51.1138 509.014 50.8976 508.472 50.8956H503.78C503.238 50.8976 502.718 51.1138 502.334 51.4973C501.95 51.8807 501.734 52.4003 501.732 52.9427V57.6359C501.73 57.9059 501.782 58.1734 501.883 58.4233C501.986 58.6731 502.137 58.9002 502.327 59.0916C502.517 59.2829 502.744 59.4347 502.993 59.5381C503.242 59.6415 503.509 59.6946 503.78 59.6943ZM520.049 59.6943H524.741C525.877 59.6943 526.8 58.7704 526.8 57.6459V52.9427C526.8 51.8182 525.877 50.8956 524.741 50.8956H520.049C519.507 50.8976 518.987 51.1138 518.603 51.4973C518.22 51.8807 518.004 52.4003 518.001 52.9427V57.6359C518.001 58.7704 518.925 59.6943 520.049 59.6943ZM503.193 96.4944H507.885C508.428 96.4926 508.947 96.2762 509.331 95.8923C509.715 95.5084 509.932 94.9886 509.933 94.4465V89.7531C509.933 88.6186 509.01 87.7048 507.885 87.7048H503.193C502.65 87.7068 502.13 87.9232 501.746 88.3069C501.364 88.6906 501.147 89.2104 501.144 89.7531V94.4465C501.144 94.7157 501.196 94.9821 501.3 95.2309C501.402 95.4797 501.553 95.7054 501.743 95.896C501.933 96.0865 502.16 96.2373 502.409 96.34C502.658 96.4426 502.924 96.4954 503.193 96.4944ZM519.463 96.4944H524.155C524.697 96.4926 525.217 96.2762 525.601 95.8923C525.985 95.5084 526.201 94.9886 526.203 94.4465V89.7531C526.203 88.6186 525.281 87.7048 524.155 87.7048H519.463C518.329 87.7048 517.404 88.6287 517.404 89.7531V94.4465C517.41 94.9895 517.629 95.5084 518.014 95.8914C518.4 96.2752 518.92 96.4917 519.463 96.4944Z" fill="#E1E4E5"/>
<path d="M548.423 187.809C548.71 178.792 550.756 169.574 554.359 160.959C601.273 177.413 587.527 158.087 559.142 151.539C566.779 138.76 578.363 128.394 593.521 123.598C611.878 117.797 633.634 131.007 647.668 150.507C625.595 159.666 630.292 188.815 653.173 159.15C657.754 167.363 660.895 176.208 661.961 185.024C664.642 206.734 654.642 228.042 622.28 237.519C570.123 252.882 547.27 221.782 548.423 187.809ZM581.216 176.724C567.442 177.127 586.72 192.548 597.038 185.081C603.492 180.372 595.019 176.322 581.216 176.724Z" fill="#888F82"/>
<path d="M634.872 409.562C637.148 233.785 593.549 123.626 593.549 123.626" stroke="#888F82" stroke-width="2.31244" stroke-miterlimit="10"/>
<path d="M646.537 199.237C653.742 229.65 661.781 212.706 653.078 192.719C667.228 180.6 687.976 174.283 711.001 181.031C729.588 186.487 738.405 199.64 739.847 214.458C710.079 213.021 702.817 232.032 739.991 221.493C738.232 254.633 703.22 291.248 659.591 268.704C627.575 252.164 628.469 220.374 646.537 199.237ZM689.676 239.786C705.468 244.008 706.245 232.377 692.443 230.769C682.616 229.621 673.884 235.565 689.676 239.786Z" fill="#888F82"/>
<path d="M648.475 353.767C641.241 243.407 704.407 187.839 704.407 187.839" stroke="#888F82" stroke-width="2.31244" stroke-miterlimit="10"/>
<path d="M522.246 264.182C506.915 244.194 506.54 211.486 518.326 201.722C529.479 192.476 543.714 191.355 557.432 195.145C553.944 215.937 570.946 225.069 566.883 198.592C598.841 212.864 622.73 251.547 587.171 270.671C560.083 285.203 540.717 281.614 528.125 270.558C574.001 267.628 550.514 255.25 522.246 264.182ZM534.234 230.554C520.862 234.488 522.736 238.681 537.548 239.8C552.331 240.921 551.495 225.529 534.234 230.554Z" fill="#888F82"/>
<path d="M609.4 352.76C613.81 243.404 527.474 203.429 527.474 203.429" stroke="#888F82" stroke-width="2.31244" stroke-miterlimit="10"/>
<path d="M696.829 340.739H560.645L579.402 393.708C584.205 407.264 597.089 416.361 611.533 416.361H645.969C660.416 416.361 673.297 407.291 678.099 393.709L696.829 340.739Z" fill="white"/>
<path d="M678.099 393.709C673.297 407.291 660.416 416.361 645.969 416.361H611.533C597.089 416.361 584.205 407.264 579.402 393.708L560.645 340.739H696.829L678.099 393.709ZM678.099 393.709L680.463 394.545" stroke="#E1E4E5" stroke-width="3.69991"/>
<path d="M716.062 338.882V330.714H543.104V338.882H716.062Z" fill="#E1E4E5" stroke="#E1E4E5" stroke-width="3.69991"/>
<path d="M24.4508 341.812L30.1858 413.148H69.8719L75.6194 341.812H24.4508Z" fill="#B6B9B3"/>
<path d="M21.1692 335.38H79.5093V345.777H21.1692V335.38ZM25.1668 335.38H75.513L72.5734 323.691H28.1189L25.1668 335.38Z" fill="#888F82"/>
<path d="M38.6708 378.142C38.6705 379.675 38.9721 381.192 39.5583 382.608C40.1446 384.023 41.0041 385.31 42.0876 386.393C43.1711 387.477 44.4576 388.336 45.8733 388.923C47.2891 389.509 48.8065 389.811 50.3389 389.81C51.8713 389.811 53.3886 389.509 54.8044 388.923C56.2201 388.336 57.5066 387.477 58.5901 386.393C59.6736 385.31 60.5331 384.023 61.1194 382.608C61.7056 381.192 62.0072 379.675 62.0069 378.142C62.0073 376.609 61.7059 375.092 61.1197 373.676C60.5335 372.26 59.6741 370.974 58.5905 369.89C57.507 368.807 56.2204 367.947 54.8046 367.361C53.3888 366.775 51.8713 366.473 50.3389 366.474C48.8065 366.473 47.2891 366.775 45.8733 367.361C44.4576 367.948 43.1711 368.807 42.0876 369.89C41.0041 370.974 40.1446 372.261 39.5583 373.676C38.9721 375.092 38.6705 376.609 38.6708 378.142Z" fill="white"/>
<path fill-rule="evenodd" clip-rule="evenodd" d="M143.362 110.553V51.0908C143.362 44.9309 138.383 39.9418 132.235 39.9418H65.4818C59.3344 39.9418 54.3552 44.9309 54.3552 51.0908V110.553C54.3545 112.54 54.8849 114.491 55.8915 116.205C56.8981 117.918 58.3442 119.331 60.0802 120.298L93.4575 138.877C95.1095 139.798 96.9697 140.281 98.8612 140.281C100.753 140.281 102.613 139.798 104.265 138.877L137.644 120.298C139.377 119.329 140.822 117.915 141.826 116.202C142.832 114.489 143.362 112.539 143.362 110.553Z" fill="#E1E4E5"/>
<path d="M117.359 105.948H80.3567M117.359 89.1111H80.3567M117.359 71.7758H80.3567" stroke="white" stroke-width="2.47617" stroke-linecap="round" stroke-linejoin="round"/>
<path d="M96.4341 272.246L119.284 295.095C120.116 295.927 120.116 297.277 119.284 298.108C118.452 298.941 117.103 298.94 116.271 298.108L93.4214 275.258C92.589 274.426 92.589 273.077 93.4205 272.245C94.253 271.413 95.6016 271.413 96.4341 272.246Z" fill="#E1E4E5"/>
<path d="M98.6744 288.605L105.264 295.195C106.095 296.027 106.096 297.376 105.264 298.208C104.432 299.04 103.083 299.04 102.25 298.207L95.6617 291.618C94.8293 290.785 94.8293 289.437 95.6608 288.605C96.4933 287.772 97.8419 287.772 98.6744 288.605Z" fill="#E1E4E5"/>
</g>
<defs>
<linearGradient id="paint0_linear_1_37" x1="294.838" y1="602.283" x2="302.284" y2="-419.25" gradientUnits="userSpaceOnUse">
<stop stop-color="white"/>
<stop offset="1" stop-color="#EEEEEE"/>
</linearGradient>
<clipPath id="clip0_1_37">
<rect width="739.982" height="418.09" fill="white" transform="translate(0.0088501 0.380005)"/>
</clipPath>
</defs>
</svg>
