<svg width="304" height="305" viewBox="0 0 304 305" fill="none" xmlns="http://www.w3.org/2000/svg">
<g clip-path="url(#clip0_1_118)">
<path d="M304 0.660034H0V304.66H304V0.660034Z" fill="#CBD0D0"/>
<path d="M229.034 195.559C230.174 216.564 189.107 259.276 138.489 243.467C114.947 236.114 116.942 223.909 99.0407 207.824C88.3703 198.237 73.0395 190.988 68.7754 177.053C65.0925 165.025 67.3512 152.097 73.7367 143.687C88.0997 124.776 117.094 111.826 145.663 141.623C174.232 171.419 226.088 141.385 229.034 195.559Z" fill="url(#paint0_linear_1_118)"/>
<path d="M212.351 106.038C208.975 112.062 201.582 112.889 189.74 111.745C180.832 110.882 172.71 110.215 163.803 105.358C157.568 101.962 152.633 97.3655 149.03 92.9018C145.127 88.0662 139.679 82.5476 142.35 77.0649C146.02 69.5333 167.246 63.1899 187.857 73.5634C210.498 84.9613 215.652 100.15 212.351 106.038Z" fill="url(#paint1_linear_1_118)"/>
<path d="M192.784 65.8807C192.565 65.8016 192.343 65.7302 192.118 65.6663C192.044 65.6451 191.971 65.6223 191.896 65.603C191.737 65.563 191.577 65.5245 191.417 65.488C191.34 65.4718 191.263 65.4561 191.186 65.4419C191.025 65.412 190.864 65.3846 190.702 65.3608C190.607 65.3476 190.513 65.3355 190.417 65.3243C190.349 65.3167 190.28 65.3086 190.21 65.3025C190.101 65.2924 189.992 65.2843 189.882 65.2777C189.825 65.2742 189.767 65.2681 189.71 65.2661C189.541 65.258 189.372 65.2539 189.202 65.2539H111.18C110.469 65.2534 109.758 65.3248 109.061 65.4682C104.608 66.3797 101.181 70.1123 100.714 74.721C100.678 75.0762 100.659 75.4354 100.659 75.7997V235.65C100.659 240.215 103.552 244.101 107.601 245.569C107.619 245.576 107.637 245.582 107.655 245.587C107.856 245.659 108.06 245.724 108.265 245.782C108.34 245.804 108.413 245.826 108.488 245.846C108.568 245.865 108.647 245.885 108.726 245.904C108.805 245.923 108.887 245.942 108.968 245.96C109.045 245.977 109.121 245.992 109.199 246.007C109.36 246.037 109.521 246.063 109.682 246.088C109.776 246.101 109.871 246.112 109.966 246.124C110.144 246.144 110.322 246.16 110.501 246.171C110.558 246.174 110.616 246.18 110.674 246.182C110.842 246.19 111.011 246.195 111.181 246.195H189.205C189.568 246.195 189.927 246.176 190.281 246.14C195.232 245.637 199.169 241.69 199.672 236.727C199.708 236.372 199.726 236.012 199.726 235.648V75.7997C199.724 71.2351 196.832 67.349 192.784 65.8807Z" fill="#B6B9B3"/>
<path d="M150.192 238.578C153.542 238.578 156.257 235.862 156.257 232.512C156.257 229.163 153.542 226.447 150.192 226.447C146.842 226.447 144.126 229.163 144.126 232.512C144.126 235.862 146.842 238.578 150.192 238.578Z" fill="white"/>
<path d="M159.795 74.3126H141.094C140.536 74.3126 140.083 74.7651 140.083 75.3234C140.083 75.8813 140.536 76.3342 141.094 76.3342H159.795C160.353 76.3342 160.806 75.8813 160.806 75.3234C160.806 74.7651 160.353 74.3126 159.795 74.3126Z" fill="white"/>
<path d="M270.99 133.448C269.944 129.268 260.061 123.164 254.779 126.844C253.159 118.882 251.642 113.916 246.345 109.994C241.049 106.071 232.212 111.198 230.792 121.938C229.373 117.523 222.157 111.573 216.36 116.59C210.996 121.232 210.458 129.011 211.019 133.441H270.99V133.448Z" fill="url(#paint2_linear_1_118)"/>
<path d="M47.0839 96.5517C47.787 93.7367 54.4312 89.6256 57.9819 92.1047C59.0718 86.7422 60.0912 83.3977 63.6515 80.7564C67.2124 78.1146 73.1535 81.5676 74.1076 88.7997C75.0616 85.8266 79.913 81.8199 83.8103 85.1983C87.4157 88.325 87.7775 93.5639 87.4005 96.5467H47.0839V96.5517Z" fill="url(#paint3_linear_1_118)"/>
<path d="M143.903 120.847C145.271 120.847 146.38 119.739 146.38 118.371C146.38 117.004 145.271 115.895 143.903 115.895C142.536 115.895 141.427 117.004 141.427 118.371C141.427 119.739 142.536 120.847 143.903 120.847Z" fill="white"/>
<path d="M168.975 122.914C168.123 122.783 167.263 122.713 166.401 122.705C161.206 122.668 156.256 124.945 152.859 128.937C149.463 132.927 147.962 138.23 148.753 143.443" stroke="white" stroke-width="5.2668" stroke-linecap="round" stroke-linejoin="round"/>
<path d="M169.904 124.097C169.904 129.392 167.8 134.47 164.056 138.214C160.312 141.958 155.234 144.061 149.939 144.062C144.645 144.062 139.566 141.958 135.823 138.214C132.078 134.47 129.975 129.392 129.975 124.097C129.975 118.803 132.078 113.724 135.822 109.98C139.566 106.236 144.644 104.133 149.939 104.133C155.234 104.133 160.312 106.236 164.057 109.98C167.8 113.724 169.904 118.803 169.904 124.097Z" stroke="white" stroke-width="5.2668" stroke-linecap="round" stroke-linejoin="round"/>
<path d="M177.485 183.486H125.425C124.309 183.486 123.404 184.39 123.404 185.507V185.508C123.404 186.624 124.309 187.529 125.425 187.529H177.485C178.602 187.529 179.506 186.624 179.506 185.508V185.507C179.506 184.39 178.602 183.486 177.485 183.486Z" fill="white"/>
<path d="M177.485 171.355H129.469C128.352 171.355 127.447 172.26 127.447 173.377V173.378C127.447 174.494 128.352 175.399 129.469 175.399H177.485C178.602 175.399 179.506 174.494 179.506 173.378V173.377C179.506 172.26 178.602 171.355 177.485 171.355Z" fill="white"/>
<path d="M177.485 159.225H122.898C121.782 159.225 120.876 160.13 120.876 161.247V161.247C120.876 162.364 121.782 163.269 122.898 163.269H177.485C178.602 163.269 179.506 162.364 179.506 161.247V161.247C179.506 160.13 178.602 159.225 177.485 159.225Z" fill="white"/>
<path d="M84.4862 170.344C86.1607 170.344 87.5186 171.702 87.5186 173.377C87.5186 175.052 86.1607 176.41 84.4862 176.41C82.8111 176.41 81.4533 175.052 81.4533 173.377C81.4533 171.702 82.8111 170.344 84.4862 170.344Z" fill="#E1E4E5"/>
<path d="M217.161 181.464C216.184 181.464 215.392 182.256 215.392 183.233C215.392 184.21 216.184 185.002 217.161 185.002C218.138 185.002 218.93 184.21 218.93 183.233C218.93 182.256 218.138 181.464 217.161 181.464Z" fill="#888F82"/>
<path d="M60.2123 128.768C58.9562 128.768 57.9378 129.786 57.9378 131.042C57.9378 132.298 58.9562 133.317 60.2123 133.317C61.4683 133.317 62.4867 132.298 62.4867 131.042C62.4867 129.786 61.4683 128.768 60.2123 128.768Z" fill="#888F82"/>
<path d="M89.9592 115.904C88.7031 115.904 87.6847 116.922 87.6847 118.178C87.6847 119.434 88.7031 120.453 89.9592 120.453C91.2152 120.453 92.2336 119.434 92.2336 118.178C92.2336 116.922 91.2152 115.904 89.9592 115.904Z" fill="#E1E4E5"/>
<path d="M215.645 209.262C216.901 209.262 217.919 210.281 217.919 211.537C217.919 212.793 216.901 213.811 215.645 213.811C214.389 213.811 213.371 212.793 213.371 211.537C213.371 210.281 214.389 209.262 215.645 209.262Z" fill="#E1E4E5"/>
<path d="M87.9492 219.214C89.2052 219.214 90.2236 220.233 90.2236 221.489C90.2236 222.745 89.2052 223.763 87.9492 223.763C86.6932 223.763 85.6748 222.745 85.6748 221.489C85.6748 220.233 86.6932 219.214 87.9492 219.214Z" fill="#E1E4E5"/>
<path d="M210.59 90.9916C211.846 90.9916 212.865 92.01 212.865 93.266C212.865 94.522 211.846 95.5404 210.59 95.5404C209.334 95.5404 208.316 94.522 208.316 93.266C208.316 92.01 209.334 90.9916 210.59 90.9916Z" fill="#E1E4E5"/>
<path d="M218.931 157.203L215.393 153.665L218.931 150.127L222.469 153.665L218.931 157.203Z" stroke="#E1E4E5" stroke-width="2.54803" stroke-linecap="round" stroke-linejoin="round"/>
<path d="M243.265 147.626C239.504 148.517 235.527 145.328 235.527 145.328C235.527 145.328 237.649 140.696 241.411 139.808C245.172 138.917 249.148 142.103 249.148 142.103C249.148 142.103 247.025 146.735 243.265 147.626Z" fill="url(#paint4_linear_1_118)"/>
<path d="M236.479 176.916C239.811 179.211 244.903 177.607 244.903 177.607C244.903 177.607 244.588 172.28 241.253 169.986C237.92 167.691 232.83 169.293 232.83 169.293C232.83 169.293 233.145 174.62 236.479 176.916Z" fill="#C26148"/>
<path d="M38.7529 154.736C46.1189 162.233 59.8936 160.653 59.8936 160.653C59.8936 160.653 61.716 146.917 54.343 139.424C46.9771 131.927 33.2099 133.503 33.2099 133.503C33.2099 133.503 31.3869 147.239 38.7529 154.736Z" fill="#C26148"/>
<path d="M256.365 158.113C253.341 158.113 250.891 160.457 250.891 163.349C250.891 166.241 253.341 168.585 256.365 168.585C259.389 168.585 261.839 166.241 261.839 163.349C261.839 160.457 259.389 158.113 256.365 158.113Z" fill="#C26148"/>
<path d="M79.8892 200.128C75.8146 200.128 72.5111 203.325 72.5111 207.268C72.5111 211.211 75.8146 214.408 79.8892 214.408C83.9638 214.408 87.2673 211.211 87.2673 207.268C87.2673 203.325 83.9638 200.128 79.8892 200.128Z" fill="#C26148"/>
<path d="M75.5876 115.926C72.6205 115.926 70.2149 113.521 70.2149 110.553C70.2149 107.585 72.6205 105.18 75.5876 105.18C78.5551 105.18 80.9608 107.585 80.9608 110.553C80.9608 113.521 78.5551 115.926 75.5876 115.926Z" fill="#C26148"/>
<path d="M222.523 129.116C219.763 129.116 217.525 126.879 217.525 124.118C217.525 121.358 219.763 119.12 222.523 119.12C225.284 119.12 227.522 121.358 227.522 124.118C227.522 126.879 225.284 129.116 222.523 129.116Z" fill="#C26148"/>
<path d="M235.286 212.125C232.804 212.125 230.792 210.113 230.792 207.63C230.792 205.148 232.804 203.135 235.286 203.135C237.769 203.135 239.782 205.148 239.782 207.63C239.782 210.113 237.769 212.125 235.286 212.125Z" fill="#E1E4E5"/>
<path d="M57.4398 183.246C54.8289 183.246 52.7121 181.13 52.7121 178.518C52.7121 175.907 54.8289 173.79 57.4398 173.79C60.0511 173.79 62.168 175.907 62.168 178.518C62.168 181.13 60.0511 183.246 57.4398 183.246Z" fill="#E1E4E5"/>
<path d="M243.171 122.975C241.884 122.975 240.841 121.932 240.841 120.645C240.841 119.359 241.884 118.316 243.171 118.316C244.457 118.316 245.5 119.359 245.5 120.645C245.5 121.932 244.457 122.975 243.171 122.975Z" fill="#E1E4E5"/>
<path d="M229.681 96.8898C227.717 96.8898 226.125 95.2978 226.125 93.3345C226.125 91.3706 227.717 89.7787 229.681 89.7787C231.644 89.7787 233.236 91.3706 233.236 93.3345C233.236 95.2978 231.644 96.8898 229.681 96.8898Z" fill="#E1E4E5"/>
<path d="M80.3548 146.201C80.6872 147.442 79.951 148.718 78.7102 149.05C77.4693 149.383 76.1941 148.646 75.8612 147.405C75.5288 146.165 76.2655 144.889 77.5058 144.557C78.7466 144.224 80.0224 144.961 80.3548 146.201Z" fill="#E1E4E5"/>
<path d="M46.8828 112.688C45.6617 112.688 44.6718 111.698 44.6718 110.477C44.6718 109.256 45.6617 108.266 46.8828 108.266C48.1038 108.266 49.0937 109.256 49.0937 110.477C49.0937 111.698 48.1038 112.688 46.8828 112.688Z" fill="#E1E4E5"/>
<path d="M253.271 194.079C251.956 194.079 250.891 193.227 250.891 192.175C250.891 191.124 251.956 190.271 253.271 190.271C254.585 190.271 255.651 191.124 255.651 192.175C255.651 193.227 254.585 194.079 253.271 194.079Z" fill="#E1E4E5"/>
<path d="M193.924 75.9674C194.615 78.5494 193.083 81.2033 190.501 81.8954C187.919 82.5875 185.265 81.0549 184.573 78.4729C183.881 75.8904 185.413 73.2365 187.995 72.5449C190.578 71.8528 193.232 73.3849 193.924 75.9674Z" fill="#E1E4E5"/>
<path d="M257.555 100.628H257.617C257.986 105.852 261.871 105.933 261.871 105.933C261.871 105.933 257.587 106.017 257.587 112.053C257.587 106.017 253.302 105.933 253.302 105.933C253.302 105.933 257.186 105.852 257.555 100.628ZM95.0836 58.42H95.1566C95.5893 64.6698 100.146 64.766 100.146 64.766C100.146 64.766 95.1211 64.8659 95.1211 72.0874C95.1211 64.8659 90.0965 64.766 90.0965 64.766C90.0965 64.766 94.6514 64.6698 95.0836 58.42Z" fill="#E1E4E5"/>
</g>
<defs>
<linearGradient id="paint0_linear_1_118" x1="179.95" y1="321.467" x2="103.133" y2="-25.1072" gradientUnits="userSpaceOnUse">
<stop stop-color="white"/>
<stop offset="1" stop-color="#EEEEEE"/>
</linearGradient>
<linearGradient id="paint1_linear_1_118" x1="189.611" y1="145.079" x2="159.526" y2="9.88706" gradientUnits="userSpaceOnUse">
<stop stop-color="white"/>
<stop offset="1" stop-color="#EEEEEE"/>
</linearGradient>
<linearGradient id="paint2_linear_1_118" x1="242.199" y1="147.333" x2="241.885" y2="81.7332" gradientUnits="userSpaceOnUse">
<stop stop-color="white"/>
<stop offset="1" stop-color="#EEEEEE"/>
</linearGradient>
<linearGradient id="paint3_linear_1_118" x1="66.4392" y1="105.903" x2="66.6515" y2="61.7235" gradientUnits="userSpaceOnUse">
<stop stop-color="white"/>
<stop offset="1" stop-color="#EEEEEE"/>
</linearGradient>
<linearGradient id="paint4_linear_1_118" x1="229.104" y1="149.841" x2="262.023" y2="134.289" gradientUnits="userSpaceOnUse">
<stop stop-color="white"/>
<stop offset="1" stop-color="#EEEEEE"/>
</linearGradient>
<clipPath id="clip0_1_118">
<rect width="304" height="304" fill="white" transform="translate(0 0.660034)"/>
</clipPath>
</defs>
</svg>
