<svg width="26" height="21" viewBox="0 0 26 21" fill="none" xmlns="http://www.w3.org/2000/svg">
<path d="M25.2425 2.69501C24.3225 3.10251 23.3337 3.37876 22.2962 3.50251C23.355 2.86751 24.1687 1.86251 24.5512 0.665009C23.56 1.25251 22.4625 1.68001 21.2937 1.91001C20.36 0.912509 19.0262 0.290009 17.5512 0.290009C14.7187 0.290009 12.4225 2.58626 12.4225 5.41876C12.4225 5.82126 12.4675 6.21251 12.555 6.58751C8.29246 6.37376 4.51371 4.33251 1.98371 1.22876C1.54246 1.98626 1.28871 2.86751 1.28871 3.80751C1.28871 5.58751 2.19371 7.15626 3.56996 8.07626C2.72871 8.05001 1.93871 7.81876 1.24621 7.43501C1.24621 7.45626 1.24621 7.47751 1.24621 7.50001C1.24621 9.98501 3.01371 12.0588 5.36121 12.5288C4.93121 12.6463 4.47746 12.7088 4.00996 12.7088C3.67996 12.7088 3.35871 12.6763 3.04496 12.6163C3.69746 14.6538 5.59246 16.1363 7.83621 16.1788C6.08121 17.5538 3.86871 18.3738 1.46621 18.3738C1.05246 18.3738 0.643712 18.35 0.242462 18.3025C2.51246 19.7575 5.20871 20.6063 8.10496 20.6063C17.5387 20.6063 22.6987 12.7913 22.6987 6.01251C22.6987 5.79001 22.6937 5.56876 22.6837 5.34876C23.6862 4.62751 24.555 3.72376 25.2425 2.69501Z" fill="#1D1F25"/>
</svg>
