<svg width="304" height="305" viewBox="0 0 304 305" fill="none" xmlns="http://www.w3.org/2000/svg">
<g clip-path="url(#clip0_1_71)">
<path d="M304 0.660034H0V304.66H304V0.660034Z" fill="#CBD0D0"/>
<path d="M151.296 244.29C202.957 244.29 244.836 204.904 244.836 156.318C244.836 107.732 202.957 68.3462 151.296 68.3462C99.6355 68.3462 57.7564 107.732 57.7564 156.318C57.7564 204.904 99.6355 244.29 151.296 244.29Z" fill="white"/>
<path d="M195.919 168.82C195.283 171.193 193.513 173.21 190.722 174.8C187.929 176.393 184.161 177.526 179.656 178.134C170.651 179.351 158.851 178.452 146.404 175.117C133.957 171.782 123.288 166.66 116.098 161.104C112.501 158.324 109.805 155.459 108.181 152.684C106.559 149.911 106.035 147.279 106.671 144.906C107.307 142.532 109.077 140.515 111.867 138.925C114.662 137.333 118.429 136.2 122.934 135.591C131.939 134.374 143.739 135.273 156.186 138.609C168.633 141.944 179.303 147.065 186.493 152.622C190.089 155.401 192.786 158.266 194.409 161.042C196.031 163.814 196.555 166.446 195.919 168.82Z" stroke="#888F82" stroke-width="2.02667"/>
<path d="M221.146 175.035C218.31 185.62 208.064 193.3 193.489 197.027C178.94 200.747 160.241 200.472 140.856 195.277C121.471 190.083 105.139 180.971 94.3996 170.475C83.641 159.961 78.6073 148.187 81.4436 137.602C84.2799 127.016 94.5263 119.337 109.101 115.61C123.65 111.89 142.349 112.165 161.734 117.359C181.119 122.553 197.451 131.665 208.19 142.161C218.949 152.676 223.983 164.449 221.146 175.035Z" stroke="#888F82" stroke-width="2.02667"/>
<path d="M242.737 177.986C238.504 193.784 224.614 205.498 205.379 211.584C186.153 217.667 161.686 218.085 136.551 211.35C111.416 204.615 90.4359 192.02 76.8274 177.139C63.2122 162.251 57.0405 145.161 61.2737 129.363C65.5069 113.565 79.3967 101.85 98.6318 95.7644C117.858 89.6809 142.324 89.2634 167.459 95.9985C192.595 102.734 213.574 115.328 227.183 130.21C240.798 145.098 246.97 162.187 242.737 177.986Z" stroke="#888F82" stroke-width="2.02667"/>
<path d="M170.855 127.672C186.713 138.5 190.809 160.104 180.008 175.924C169.205 191.743 147.594 195.794 131.734 184.965C115.875 174.136 111.78 152.532 122.581 136.713C133.384 120.893 154.996 116.843 170.855 127.672Z" stroke="#888F82" stroke-width="2.02667"/>
<path d="M258.266 240.973C258.266 240.973 242.635 228.592 232.335 227.173C222.143 225.769 195.277 227.415 175.342 218.964C175.155 218.886 175.001 218.746 174.907 218.567C174.813 218.388 174.783 218.182 174.825 217.984C175.141 216.54 176.637 213.468 183.825 213.766C193.18 214.17 200.35 214.293 200.35 214.293C200.35 214.293 171.611 185.887 164.396 177.61C162.971 175.977 162.008 174.503 161.379 173.164C159.422 168.987 164.791 165.234 168.117 168.433L187.584 187.144C187.584 187.144 186.664 184.212 188.72 182.392C190.669 180.675 195.606 181.622 198.488 184.73C198.488 184.73 197.732 181.351 200.982 179.852C204.231 178.355 208.501 180.943 210.312 182.622C210.312 182.622 208.892 179.554 210.921 177.801C212.95 176.048 218.331 177.757 219.774 178.788C221.217 179.819 234.691 186.269 249.29 204.344L277.893 213.204C277.893 213.204 281.896 223.789 258.266 240.973ZM45.7338 69.1583C45.7338 69.1583 61.3654 81.5387 71.6655 82.9584C81.8571 84.3619 108.723 82.7162 128.658 91.1664C128.845 91.2439 128.999 91.3848 129.094 91.5636C129.188 91.743 129.217 91.9492 129.175 92.1473C128.859 93.5908 127.363 96.6637 120.176 96.3648C110.821 95.961 103.65 95.8374 103.65 95.8374C103.65 95.8374 132.389 124.245 139.604 132.521C141.029 134.154 141.993 135.627 142.621 136.967C144.578 141.145 139.21 144.896 135.883 141.698L116.416 122.987C116.416 122.987 117.336 125.919 115.281 127.739C113.332 129.455 108.395 128.509 105.512 125.401C105.512 125.401 106.268 128.781 103.019 130.278C99.7687 131.776 95.4991 129.188 93.6882 127.509C93.6882 127.509 95.1084 130.577 93.0792 132.33C91.05 134.082 85.6697 132.374 84.2262 131.343C82.7832 130.311 69.3095 123.862 54.7104 105.786L26.107 96.9267C26.107 96.9267 22.1034 86.3419 45.7338 69.1588V69.1583Z" fill="#F8AE9D"/>
<path d="M151.3 142.55H151.458C152.397 155.021 162.29 155.213 162.29 155.213C162.29 155.213 151.381 155.413 151.381 169.823C151.381 155.413 140.472 155.213 140.472 155.213C140.472 155.213 150.361 155.021 151.3 142.55Z" fill="#C26148"/>
<path d="M251.31 181.175C255.105 183.788 260.902 181.961 260.902 181.961C260.902 181.961 260.543 175.897 256.746 173.286C252.951 170.672 247.157 172.497 247.157 172.497C247.157 172.497 247.515 178.561 251.31 181.175Z" fill="white"/>
<path d="M41.643 159.651C45.5739 163.652 52.9244 162.809 52.9244 162.809C52.9244 162.809 53.8972 155.479 49.9626 151.48C46.0317 147.479 38.6849 148.32 38.6849 148.32C38.6849 148.32 37.7122 155.651 41.643 159.651Z" fill="white"/>
<path d="M163.069 231.641C159.626 231.641 156.836 234.31 156.836 237.602C156.836 240.895 159.626 243.564 163.069 243.564C166.51 243.564 169.301 240.895 169.301 237.602C169.301 234.31 166.51 231.641 163.069 231.641Z" fill="#888F82"/>
<path d="M49.5635 183.023C47.5553 183.023 45.9272 184.651 45.9272 186.659C45.9272 188.667 47.5553 190.295 49.5635 190.295C51.5721 190.295 53.2 188.667 53.2 186.659C53.2 184.651 51.5721 183.023 49.5635 183.023Z" fill="#888F82"/>
<path d="M113.382 68.369C111.474 68.369 109.927 66.8226 109.927 64.9145C109.927 63.0069 111.474 61.4601 113.382 61.4601C115.289 61.4601 116.836 63.0069 116.836 64.9145C116.836 66.8226 115.289 68.369 113.382 68.369Z" fill="#888F82"/>
<path d="M228.708 125.568C225.565 125.568 223.017 123.019 223.017 119.877C223.017 116.734 225.565 114.187 228.708 114.187C231.85 114.187 234.398 116.734 234.398 119.877C234.398 123.019 231.85 125.568 228.708 125.568Z" fill="#888F82"/>
<path d="M211.309 243.497C209.34 243.497 207.744 241.901 207.744 239.933C207.744 237.964 209.34 236.368 211.309 236.368C213.277 236.368 214.873 237.964 214.873 239.933C214.873 241.901 213.277 243.497 211.309 243.497Z" fill="#ADADAD"/>
<path d="M100.837 234.186C97.2217 234.186 94.2912 231.256 94.2912 227.641C94.2912 224.026 97.2217 221.095 100.837 221.095C104.451 221.095 107.382 224.026 107.382 227.641C107.382 231.256 104.451 234.186 100.837 234.186Z" fill="#888F82"/>
<path d="M160.109 228.368C158.904 228.368 157.927 227.391 157.927 226.186C157.927 224.981 158.904 224.005 160.109 224.005C161.314 224.005 162.29 224.981 162.29 226.186C162.29 227.391 161.314 228.368 160.109 228.368Z" fill="#888F82"/>
<path d="M244.214 140.583C242.75 140.583 241.562 139.395 241.562 137.93C241.562 136.465 242.75 135.278 244.214 135.278C245.679 135.278 246.867 136.465 246.867 137.93C246.867 139.395 245.679 140.583 244.214 140.583Z" fill="#ADADAD"/>
<path d="M219.065 100.466C216.83 100.466 215.017 98.653 215.017 96.4175C215.017 94.1816 216.83 92.3688 219.065 92.3688C221.301 92.3688 223.114 94.1816 223.114 96.4175C223.114 98.653 221.301 100.466 219.065 100.466Z" fill="#888F82"/>
<path d="M76.568 154.417C76.568 155.547 75.6514 156.464 74.5205 156.464C73.3896 156.464 72.4731 155.547 72.4731 154.417C72.4731 153.286 73.3896 152.369 74.5205 152.369C75.6514 152.369 76.568 153.286 76.568 154.417Z" fill="#ADADAD"/>
<path d="M46.9898 114.13C45.5997 114.13 44.4727 113.003 44.4727 111.613C44.4727 110.223 45.5997 109.096 46.9898 109.096C48.38 109.096 49.5069 110.223 49.5069 111.613C49.5069 113.003 48.38 114.13 46.9898 114.13Z" fill="#ADADAD"/>
<path d="M256.636 199.613C255.14 199.613 253.926 198.643 253.926 197.445C253.926 196.248 255.14 195.278 256.636 195.278C258.132 195.278 259.346 196.248 259.346 197.445C259.346 198.643 258.132 199.613 256.636 199.613Z" fill="#ADADAD"/>
<path d="M166.654 87.4601C166.654 89.5688 164.944 91.2783 162.836 91.2783C160.727 91.2783 159.017 89.5688 159.017 87.4601C159.017 85.3513 160.727 83.6418 162.836 83.6418C164.944 83.6418 166.654 85.3513 166.654 87.4601Z" fill="#888F82"/>
<path d="M246.404 110.914H246.475C246.895 116.862 251.318 116.953 251.318 116.953C251.318 116.953 246.44 117.048 246.44 123.921C246.44 117.048 241.563 116.953 241.563 116.953C241.563 116.953 245.984 116.862 246.404 110.914ZM90.0808 68.3694H90.136C90.4648 73.1908 93.9274 73.2658 93.9274 73.2658C93.9274 73.2658 90.1091 73.3428 90.1091 78.9146C90.1091 73.3428 86.2909 73.2658 86.2909 73.2658C86.2909 73.2658 89.7519 73.1913 90.0808 68.3694Z" fill="#ADADAD"/>
<path d="M85.503 197.913C87.287 197.49 89.1728 199.003 89.1728 199.003C89.1728 199.003 88.1666 201.199 86.3826 201.62C84.5991 202.043 82.7133 200.532 82.7133 200.532C82.7133 200.532 83.7201 198.335 85.503 197.913Z" fill="white"/>
<path d="M93.8539 158.623C92.2731 157.534 89.8583 158.295 89.8583 158.295C89.8583 158.295 90.0078 160.821 91.5896 161.909C93.1699 162.998 95.5837 162.238 95.5837 162.238C95.5837 162.238 95.4342 159.711 93.8539 158.623Z" fill="white"/>
<path d="M207.681 152.94C205.293 150.51 200.829 151.022 200.829 151.022C200.829 151.022 200.238 155.475 202.628 157.903C205.015 160.333 209.478 159.822 209.478 159.822C209.478 159.822 210.069 155.37 207.681 152.94Z" fill="white"/>
<path d="M98.5365 148.875C101.084 148.875 103.149 146.903 103.149 144.472C103.149 142.04 101.084 140.068 98.5365 140.068C95.989 140.068 93.9238 142.04 93.9238 144.472C93.9238 146.903 95.989 148.875 98.5365 148.875Z" fill="#888F82"/>
<path d="M243.993 99.0486C246.54 99.0486 248.606 96.9835 248.606 94.4359C248.606 91.8884 246.54 89.8232 243.993 89.8232C241.445 89.8232 239.38 91.8884 239.38 94.4359C239.38 96.9835 241.445 99.0486 243.993 99.0486Z" fill="#888F82"/>
<path d="M72.3023 216.368C74.6183 216.368 76.496 218.34 76.496 220.772C76.496 223.204 74.6183 225.175 72.3023 225.175C69.9864 225.175 68.1092 223.204 68.1092 220.772C68.1092 218.34 69.9864 216.368 72.3023 216.368Z" fill="#888F82"/>
<path d="M255.672 150.914C257.64 150.914 259.236 152.51 259.236 154.478C259.236 156.447 257.64 158.043 255.672 158.043C253.703 158.043 252.108 156.447 252.108 154.478C252.108 152.51 253.703 150.914 255.672 150.914Z" fill="#888F82"/>
<path d="M128.346 104.843C129.523 104.843 130.478 105.798 130.478 106.975C130.478 108.152 129.523 109.107 128.346 109.107C127.169 109.107 126.214 108.152 126.214 106.975C126.214 105.798 127.169 104.843 128.346 104.843Z" fill="#888F82"/>
<path d="M199.326 90.1663C200.565 90.1663 201.569 91.17 201.569 92.4083C201.569 93.6466 200.565 94.6503 199.326 94.6503C198.088 94.6503 197.084 93.6466 197.084 92.4083C197.084 91.17 198.088 90.1663 199.326 90.1663Z" fill="#888F82"/>
<path d="M106.954 171.137C107.564 171.137 108.059 171.632 108.059 172.242C108.059 172.852 107.564 173.346 106.954 173.346C106.344 173.346 105.849 172.852 105.849 172.242C105.849 171.632 106.344 171.137 106.954 171.137Z" fill="#ADADAD"/>
<path d="M130.522 231.641C131.453 231.641 132.208 232.396 132.208 233.327C132.208 234.258 131.453 235.013 130.522 235.013C129.591 235.013 128.836 234.258 128.836 233.327C128.836 232.396 129.591 231.641 130.522 231.641Z" fill="#888F82"/>
<path d="M191.744 140.78C191.744 139.549 192.743 138.55 193.974 138.55C195.205 138.55 196.204 139.549 196.204 140.78C196.204 142.012 195.205 143.01 193.974 143.01C192.743 143.01 191.744 142.012 191.744 140.78Z" fill="#ADADAD"/>
<path d="M228.96 155.278C230.234 155.278 231.267 156.311 231.267 157.584C231.267 158.858 230.234 159.891 228.96 159.891C227.686 159.891 226.654 158.858 226.654 157.584C226.654 156.311 227.686 155.278 228.96 155.278Z" fill="#ADADAD"/>
<path d="M55.1345 128.746C57.3349 128.746 59.1184 130.154 59.1184 131.891C59.1184 133.628 57.3349 135.036 55.1345 135.036C52.9345 135.036 51.1505 133.628 51.1505 131.891C51.1505 130.154 52.9345 128.746 55.1345 128.746Z" fill="#ADADAD"/>
<path d="M116.339 215.411C116.011 214.186 116.738 212.928 117.963 212.599C119.187 212.271 120.446 212.998 120.774 214.223C121.102 215.447 120.375 216.706 119.151 217.034C117.926 217.362 116.668 216.635 116.339 215.411Z" fill="#888F82"/>
<path d="M102.261 186.582H102.232C102.057 184.105 100.215 184.067 100.215 184.067C100.215 184.067 102.246 184.027 102.246 181.165C102.246 184.027 104.278 184.067 104.278 184.067C104.278 184.067 102.436 184.105 102.261 186.582ZM168.745 199.542H168.71C168.506 196.578 166.344 196.533 166.344 196.533C166.344 196.533 168.728 196.486 168.728 193.061C168.728 196.486 171.11 196.533 171.11 196.533C171.11 196.533 168.951 196.578 168.745 199.542Z" fill="#ADADAD"/>
</g>
<defs>
<clipPath id="clip0_1_71">
<rect width="304" height="304" fill="white" transform="translate(0 0.660034)"/>
</clipPath>
</defs>
</svg>
