<svg width="23" height="23" viewBox="0 0 23 23" fill="none" xmlns="http://www.w3.org/2000/svg">
<path d="M11.455 2.06751C14.4587 2.06751 14.815 2.07876 16.0012 2.13251C17.0975 2.18251 17.6937 2.36626 18.09 2.52001C18.615 2.72376 18.99 2.96751 19.3837 3.36126C19.7775 3.75501 20.0212 4.13001 20.225 4.65501C20.3787 5.05126 20.5625 5.64751 20.6125 6.74376C20.6662 7.93001 20.6775 8.28626 20.6775 11.29C20.6775 14.2938 20.6662 14.65 20.6125 15.8363C20.5625 16.9325 20.3787 17.5288 20.225 17.925C20.0212 18.45 19.7775 18.825 19.3837 19.2188C18.99 19.6125 18.615 19.8563 18.09 20.06C17.6937 20.2138 17.0975 20.3975 16.0012 20.4475C14.815 20.5013 14.46 20.5125 11.455 20.5125C8.44996 20.5125 8.09496 20.5013 6.90871 20.4475C5.81246 20.3975 5.21621 20.2138 4.81996 20.06C4.29496 19.8563 3.91996 19.6125 3.52621 19.2188C3.13246 18.825 2.88871 18.45 2.68496 17.925C2.53121 17.5288 2.34746 16.9325 2.29746 15.8363C2.24371 14.65 2.23246 14.2938 2.23246 11.29C2.23246 8.28626 2.24371 7.93001 2.29746 6.74376C2.34746 5.64751 2.53121 5.05126 2.68496 4.65501C2.88871 4.13001 3.13246 3.75501 3.52621 3.36126C3.91996 2.96751 4.29496 2.72376 4.81996 2.52001C5.21621 2.36626 5.81246 2.18251 6.90871 2.13251C8.09496 2.07876 8.45121 2.06751 11.455 2.06751ZM11.455 0.0400085C8.39996 0.0400085 8.01621 0.0525084 6.81621 0.107508C5.61871 0.162508 4.80121 0.352508 4.08621 0.630008C3.34621 0.917508 2.71871 1.30251 2.09371 1.92876C1.46871 2.55376 1.08371 3.18126 0.796206 3.92126C0.517456 4.63626 0.327456 5.45376 0.272456 6.65126C0.217456 7.85126 0.204956 8.23501 0.204956 11.29C0.204956 14.345 0.217456 14.7288 0.272456 15.9288C0.327456 17.1263 0.517456 17.9438 0.794956 18.66C1.08246 19.4 1.46746 20.0275 2.09246 20.6525C2.71746 21.2775 3.34496 21.6625 4.08496 21.95C4.79996 22.2275 5.61871 22.4188 6.81621 22.4725C8.01621 22.5275 8.39996 22.54 11.455 22.54C14.51 22.54 14.8937 22.5275 16.0937 22.4725C17.2912 22.4175 18.1087 22.2275 18.825 21.95C19.565 21.6625 20.1925 21.2775 20.8175 20.6525C21.4425 20.0275 21.8275 19.4 22.115 18.66C22.3925 17.945 22.5837 17.1263 22.6375 15.9288C22.6925 14.7288 22.705 14.345 22.705 11.29C22.705 8.23501 22.6925 7.85126 22.6375 6.65126C22.5825 5.45376 22.3925 4.63626 22.115 3.92001C21.8275 3.18001 21.4425 2.55251 20.8175 1.92751C20.1925 1.30251 19.565 0.917508 18.825 0.630008C18.11 0.352508 17.2912 0.161258 16.0937 0.107508C14.8937 0.0525084 14.51 0.0400085 11.455 0.0400085ZM11.455 5.51251C8.26496 5.51251 5.67746 8.09876 5.67746 11.29C5.67746 14.4813 8.26496 17.0675 11.455 17.0675C14.645 17.0675 17.2325 14.4813 17.2325 11.29C17.2325 8.09876 14.645 5.51251 11.455 5.51251ZM11.455 15.04C9.38371 15.04 7.70496 13.3613 7.70496 11.29C7.70496 9.21876 9.38371 7.54001 11.455 7.54001C13.5262 7.54001 15.205 9.21876 15.205 11.29C15.205 13.3613 13.5262 15.04 11.455 15.04ZM17.46 3.93501C16.715 3.93501 16.11 4.54001 16.11 5.28501C16.11 6.03001 16.715 6.63501 17.46 6.63501C18.205 6.63501 18.81 6.03001 18.81 5.28501C18.81 4.54001 18.2062 3.93501 17.46 3.93501Z" fill="#1D1F25"/>
</svg>
